<svg id="_x30_1_cart" xmlns="http://www.w3.org/2000/svg" width="22.317" height="22.317" viewBox="0 0 22.317 22.317">
  <g id="Group_19833" data-name="Group 19833" transform="translate(0 0)">
    <path id="Path_101" data-name="Path 101" d="M10,27.232A2.232,2.232,0,1,0,12.232,25,2.234,2.234,0,0,0,10,27.232Zm2.232-.744a.744.744,0,1,1-.744.744A.745.745,0,0,1,12.232,26.488Z" transform="translate(-3.305 -7.146)" fill="#bed7ff"/>
    <path id="Path_102" data-name="Path 102" d="M23,27.232A2.232,2.232,0,1,0,25.232,25,2.234,2.234,0,0,0,23,27.232Zm2.232-.744a.744.744,0,1,1-.744.744A.745.745,0,0,1,25.232,26.488Z" transform="translate(-6.634 -7.146)" fill="#bed7ff"/>
    <path id="Path_103" data-name="Path 103" d="M22.573,17.366H8.439a.745.745,0,0,1-.744-.744v-.744H18.854a2.75,2.75,0,0,0,2.57-2.007l1.871-7.484a.743.743,0,0,0-.722-.924H5.565l-.54-2.429A2.475,2.475,0,0,0,2.86,1H1.744a.744.744,0,0,0,0,1.488H2.86a1.093,1.093,0,0,1,.713.87l.655,2.95a.753.753,0,0,0,.028.123l1.952,8.785v1.407a2.234,2.234,0,0,0,2.232,2.232H22.573a.744.744,0,1,0,0-1.488ZM21.62,6.951,19.98,13.51a1.275,1.275,0,0,1-1.126.88H7.548L5.895,6.951Z" transform="translate(-1 -1)" fill="#bed7ff"/>
  </g>
</svg>
